Coordinates
version=1
nRows=21
nColumns=19
inDegrees=yes

Units are S.I. units (second, meters, Newtons, ...)
If the header above contains a line with 'inDegrees', this indicates whether rotational values are in degrees (yes) or radians (no).

endheader
time	pelvis_tilt	pelvis_list	pelvis_rotation	pelvis_tx	pelvis_ty	pelvis_tz	hip_flexion_r	hip_adduction_r	hip_rotation_r	knee_angle_r	knee_angle_r_beta	ankle_angle_r	hip_flexion_l	hip_adduction_l	hip_rotation_l	knee_angle_l	knee_angle_l_beta	ankle_angle_l
     14.84000000	      0.01480291	     -3.42301482	     -3.54846845	      2.38157422	      1.05328453	      1.00298561	     15.57148863	      9.65157651	     -1.85698369	      9.65567982	      0.16852340	      6.28961600	    -13.61354826	     -4.15524283	    -13.08640669	     52.09053087	      0.90915127	    -11.06686131
     14.84666667	      0.52212434	     -3.85707190	     -3.92437334	      2.38028438	      1.04927143	      1.00321236	     15.74271367	     10.01179201	     -2.74183846	     12.38629055	      0.21618155	      5.93051797	    -12.97039083	     -4.72815631	    -12.61083172	     55.58114739	      0.97007402	    -10.51656123
     14.85333333	      1.47150393	     -4.39935572	     -4.27572906	      2.37886534	      1.04543625	      1.00320066	     15.41285194	     10.39164663	     -3.55435298	     15.17619105	      0.26487450	      5.66599680	    -12.81378181	     -5.41157300	    -12.30415885	     58.97036111	      1.02922696	    -10.02893773
     14.86000000	      1.40298102	     -4.57247863	     -4.64793270	      2.37710805	      1.04012248	      1.00316630	     16.45632196	     10.37409359	     -4.34119796	     18.52868611	      0.32338658	      5.75158151	    -11.33568275	     -5.76768152	    -11.77113631	     62.55072842	      1.09171616	     -9.51884436
     14.86666667	      2.38123113	     -5.11478458	     -4.97580027	      2.37547340	      1.03585125	      1.00285704	     16.11777241	     10.65662392	     -4.88610062	     21.49595821	      0.37517525	      5.98917936	    -11.14559028	     -6.50590228	    -11.59315837	     65.81825065	      1.14874518	     -9.05979567
     14.87333333	      2.08460104	     -5.17148896	     -5.33082099	      2.37346046	      1.02997011	      1.00252559	     17.41464603	     10.48426935	     -5.35881233	     24.93223946	      0.43514967	      6.65198127	     -9.30465661	     -6.77436814	    -11.05375487	     69.26686423	      1.20893484	     -8.57299351
     14.88000000	      2.15937213	     -5.39191490	     -5.64651714	      2.37148863	      1.02449672	      1.00204037	     18.11230162	     10.48549064	     -5.59169323	     28.04511599	      0.48947961	      7.72746288	     -7.91216996	     -7.26063567	    -10.69095173	     72.52514001	      1.26580248	     -8.09145027
     14.88666667	      2.93411850	     -5.89173713	     -5.92397087	      2.36952406	      1.02000001	      1.00150469	     17.83423681	     10.75120167	     -5.69241443	     30.79976170	      0.53755725	      8.80878348	     -7.38839690	     -8.04572881	    -10.52339889	     75.48662280	      1.31749011	     -7.48408853
     14.89333333	      2.44235011	     -5.95631826	     -6.20062943	      2.36732960	      1.01414151	      1.00097039	     19.00837542	     10.68545742	     -5.71059077	     33.67488913	      0.58773769	     10.26112050	     -5.22852791	     -8.45249321	    -10.01529857	     78.56376418	      1.37119636	     -6.87270259
     14.90000000	      2.42140603	     -6.20458904	     -6.46160098	      2.36519081	      1.00913575	      1.00043454	     19.41102597	     10.83047252	     -5.57370525	     36.11919709	      0.63039891	     11.87051283	     -3.65133032	     -9.06664085	     -9.65395595	     81.35725810	      1.41995202	     -6.20891455
     14.90666667	      2.29090406	     -6.49019037	     -6.65787679	      2.36301543	      1.00436959	      0.99985261	     19.75495414	     11.04490344	     -5.42998388	     38.25374188	      0.66765375	     13.56258815	     -1.89607357	     -9.74291251	     -9.18218687	     83.99865039	      1.46605302	     -5.54436711
     14.91333333	      2.10134614	     -6.72504696	     -6.84053625	      2.36083082	      0.99997910	      0.99929980	     19.98270658	     11.24201717	     -5.22549829	     40.08571782	      0.69962776	     15.27504999	     -0.03249965	    -10.36251720	     -8.65986050	     86.42797206	      1.50845268	     -4.88458086
     14.92000000	      1.87439794	     -6.96992672	     -6.97416800	      2.35867358	      0.99604752	      0.99873438	     20.04444664	     11.46752541	     -5.01411028	     41.56320644	      0.72541480	     16.92633613	      1.91481456	    -10.98176255	     -8.04848084	     88.64058187	      1.54707000	     -4.20998271
     14.92666667	      1.57126021	     -7.14341815	     -7.07742571	      2.35655777	      0.99257628	      0.99819226	     20.01270767	     11.63469676	     -4.78787973	     42.74004134	      0.74595444	     18.48354113	      3.99880400	    -11.49590415	     -7.35747872	     90.61375508	      1.58150837	     -3.61061553
     14.93333333	      1.25315234	     -7.27016298	     -7.14487428	      2.35452699	      0.98970692	      0.99766133	     19.80084993	     11.76447935	     -4.54043913	     43.57244803	      0.76048268	     19.91529839	      6.12384230	    -11.92760673	     -6.61831463	     92.31463782	      1.61119438	     -3.01597801
     14.94000000	      1.22442539	     -7.42127955	     -7.21146358	      2.35272561	      0.98776683	      0.99721634	     19.04750670	     11.90635532	     -4.22760819	     44.04322946	      0.76869937	     21.29459862	      7.88095870	    -12.32512026	     -5.93866190	     93.67747182	      1.63498032	     -2.42749009
     14.94666667	      0.71919217	     -7.48527371	     -7.11040665	      2.35092953	      0.98591688	      0.99659477	     18.71219898	     11.94713030	     -4.10081983	     44.26794039	      0.77262131	     22.26229441	     10.29829513	    -12.60530827	     -4.99655999	     94.86398559	      1.65568889	     -1.98161666
     14.95333333	      0.19706250	     -7.36650167	     -7.06832185	      2.34929638	      0.98466620	      0.99611459	     18.27079661	     11.83016479	     -3.84586252	     44.28546432	      0.77292716	     23.18837210	     12.69533590	    -12.61656521	     -4.15470954	     95.71088693	      1.67047011	     -1.59528862
     14.96000000	      0.18147410	     -7.17906431	     -7.16665986	      2.34792799	      0.98475539	      0.99587956	     17.08190818	     11.67687978	     -3.24722811	     43.97082323	      0.76743564	     23.99216810	     14.34806377	    -12.54613262	     -3.69070261	     96.10381740	      1.67732804	     -1.17499110
     14.96666667	     -0.41878178	     -7.08436597	     -6.84940990	      2.34681338	      0.98465236	      0.99518968	     16.42611317	     11.48938525	     -3.31958419	     43.39619615	      0.75740651	     24.56808221	     16.80699489	    -12.46713356	     -2.68571351	     96.37221805	      1.68201251	     -0.78234250
     14.97333333	     -0.65450945	     -6.73857570	     -6.89788874	      2.34592159	      0.98571189	      0.99498927	     15.25670403	     11.18387875	     -2.71794349	     42.64960251	      0.74437599	     25.02976962	     18.58256111	    -12.18404207	     -2.33467169	     96.15606576	      1.67823994	     -0.37433816
